# xmcd
#
# Track frame offsets:
#	150
#	14707
#	38162
#	61847
#	95916
#	118979
#	142307
#	174892
#	197344
#	223992
#	251817
#	277840
#	300468
#	323551
#
# Disc length: 4597 seconds
# Revision: 0
# Processed by: cddbd v1.5.2PL0 Copyright (c) Steve Scherf et al.
# Submitted via: dBpowerAMP V12.0
#
DISCID=d011f30e
DTITLE=The Whispers - Greatest Hits
DYEAR=1990
DGENRE=R&B
TTITLE0=A Mother For My Children
TTITLE1=Bingo
TTITLE2=One For The Money
TTITLE3=And The Beat Goes On
TTITLE4=Lady
TTITLE5=It's A Love Thing
TTITLE6=I Can Make It Better
TTITLE7=This Kind Of Lovin'
TTITLE8=In The Raw
TTITLE9=Tonight
TTITLE10=Keep On Lovin' Me
TTITLE11=Contagious
TTITLE12=Rock Steady
TTITLE13=In The Mood
EXTD=
EXTT0=
EXTT1=
EXTT2=
EXTT3=
EXTT4=
EXTT5=
EXTT6=
EXTT7=
EXTT8=
EXTT9=
EXTT10=
EXTT11=
EXTT12=
EXTT13=
PLAYORDER=
